<svg xmlns="http://www.w3.org/2000/svg" xmlns:xlink="http://www.w3.org/1999/xlink" width="1080" zoomAndPan="magnify" viewBox="0 0 810 809.999993" height="1080" preserveAspectRatio="xMidYMid meet" version="1.0"><defs><clipPath id="9ee9fdfe05"><path d="M 22.320312 141.179688 L 291 141.179688 L 291 312 L 22.320312 312 Z M 22.320312 141.179688 " clip-rule="nonzero"/></clipPath><clipPath id="16df9964bb"><path d="M 17.695312 141.09375 L 788.675781 135.710938 L 793.304688 798.695312 L 22.320312 804.078125 Z M 17.695312 141.09375 " clip-rule="nonzero"/></clipPath><clipPath id="a2902fe6e0"><path d="M -68.53125 141.695312 L 877.945312 135.089844 L 883.609375 946.570312 L -62.867188 953.175781 Z M -68.53125 141.695312 " clip-rule="nonzero"/></clipPath><clipPath id="1cf52c3f06"><path d="M 473 454 L 742 454 L 742 627 L 473 627 Z M 473 454 " clip-rule="nonzero"/></clipPath><clipPath id="a40893c50d"><path d="M 17.695312 141.09375 L 788.675781 135.710938 L 793.304688 798.695312 L 22.320312 804.078125 Z M 17.695312 141.09375 " clip-rule="nonzero"/></clipPath><clipPath id="36c14a8747"><path d="M -68.53125 141.695312 L 877.945312 135.089844 L 883.609375 946.570312 L -62.867188 953.175781 Z M -68.53125 141.695312 " clip-rule="nonzero"/></clipPath><clipPath id="3545a35489"><path d="M 159 141.179688 L 787.320312 141.179688 L 787.320312 629 L 159 629 Z M 159 141.179688 " clip-rule="nonzero"/></clipPath><clipPath id="69e4acead1"><path d="M 17.695312 141.09375 L 788.675781 135.710938 L 793.304688 798.695312 L 22.320312 804.078125 Z M 17.695312 141.09375 " clip-rule="nonzero"/></clipPath><clipPath id="a0ae34f2a5"><path d="M -68.53125 141.695312 L 877.945312 135.089844 L 883.609375 946.570312 L -62.867188 953.175781 Z M -68.53125 141.695312 " clip-rule="nonzero"/></clipPath></defs><rect x="-81" width="972" fill="#ffffff" y="-80.999999" height="971.999992" fill-opacity="1"/><rect x="-81" width="972" fill="#ffffff" y="-80.999999" height="971.999992" fill-opacity="1"/><g clip-path="url(#9ee9fdfe05)"><g clip-path="url(#16df9964bb)"><g clip-path="url(#a2902fe6e0)"><path fill="#465dfe" d="M 101.921875 140.507812 L 290.320312 139.191406 L 210.769531 310.121094 L 22.371094 311.4375 Z M 101.921875 140.507812 " fill-opacity="1" fill-rule="nonzero"/></g></g></g><g clip-path="url(#1cf52c3f06)"><g clip-path="url(#a40893c50d)"><g clip-path="url(#36c14a8747)"><path fill="#465dfe" d="M 552.710938 455.691406 L 741.109375 454.375 L 661.554688 625.304688 L 473.160156 626.621094 Z M 552.710938 455.691406 " fill-opacity="1" fill-rule="nonzero"/></g></g></g><g clip-path="url(#3545a35489)"><g clip-path="url(#69e4acead1)"><g clip-path="url(#a0ae34f2a5)"><path fill="#465dfe" d="M 386.761719 138.519531 L 788.230469 135.714844 L 708.675781 306.644531 L 511.308594 308.023438 L 365.503906 627.371094 L 159.164062 628.8125 Z M 386.761719 138.519531 " fill-opacity="1" fill-rule="nonzero"/></g></g></g></svg>