<svg xmlns="http://www.w3.org/2000/svg" xmlns:xlink="http://www.w3.org/1999/xlink" width="1080" zoomAndPan="magnify" viewBox="0 0 810 809.999993" height="1080" preserveAspectRatio="xMidYMid meet" version="1.0"><defs><clipPath id="7febc4c5eb"><path d="M 22.320312 141.179688 L 291 141.179688 L 291 312 L 22.320312 312 Z M 22.320312 141.179688 " clip-rule="nonzero"/></clipPath><clipPath id="54061b1eff"><path d="M 17.695312 141.09375 L 788.675781 135.710938 L 793.304688 798.695312 L 22.320312 804.078125 Z M 17.695312 141.09375 " clip-rule="nonzero"/></clipPath><clipPath id="7a0b2ee254"><path d="M -68.53125 141.695312 L 877.945312 135.089844 L 883.609375 946.570312 L -62.867188 953.175781 Z M -68.53125 141.695312 " clip-rule="nonzero"/></clipPath><clipPath id="48c022bb8c"><path d="M 473 454 L 742 454 L 742 627 L 473 627 Z M 473 454 " clip-rule="nonzero"/></clipPath><clipPath id="35f93c856d"><path d="M 17.695312 141.09375 L 788.675781 135.710938 L 793.304688 798.695312 L 22.320312 804.078125 Z M 17.695312 141.09375 " clip-rule="nonzero"/></clipPath><clipPath id="c020b88f41"><path d="M -68.53125 141.695312 L 877.945312 135.089844 L 883.609375 946.570312 L -62.867188 953.175781 Z M -68.53125 141.695312 " clip-rule="nonzero"/></clipPath><clipPath id="c82abc0ef3"><path d="M 159 141.179688 L 787.320312 141.179688 L 787.320312 629 L 159 629 Z M 159 141.179688 " clip-rule="nonzero"/></clipPath><clipPath id="8c07358201"><path d="M 17.695312 141.09375 L 788.675781 135.710938 L 793.304688 798.695312 L 22.320312 804.078125 Z M 17.695312 141.09375 " clip-rule="nonzero"/></clipPath><clipPath id="a97eeb532f"><path d="M -68.53125 141.695312 L 877.945312 135.089844 L 883.609375 946.570312 L -62.867188 953.175781 Z M -68.53125 141.695312 " clip-rule="nonzero"/></clipPath></defs><g clip-path="url(#7febc4c5eb)"><g clip-path="url(#54061b1eff)"><g clip-path="url(#7a0b2ee254)"><path fill="#465dfe" d="M 101.921875 140.507812 L 290.320312 139.191406 L 210.769531 310.121094 L 22.371094 311.4375 Z M 101.921875 140.507812 " fill-opacity="1" fill-rule="nonzero"/></g></g></g><g clip-path="url(#48c022bb8c)"><g clip-path="url(#35f93c856d)"><g clip-path="url(#c020b88f41)"><path fill="#465dfe" d="M 552.710938 455.691406 L 741.109375 454.375 L 661.554688 625.304688 L 473.160156 626.621094 Z M 552.710938 455.691406 " fill-opacity="1" fill-rule="nonzero"/></g></g></g><g clip-path="url(#c82abc0ef3)"><g clip-path="url(#8c07358201)"><g clip-path="url(#a97eeb532f)"><path fill="#465dfe" d="M 386.761719 138.519531 L 788.230469 135.714844 L 708.675781 306.644531 L 511.308594 308.023438 L 365.503906 627.371094 L 159.164062 628.8125 Z M 386.761719 138.519531 " fill-opacity="1" fill-rule="nonzero"/></g></g></g></svg>